# xmcd CD database file
#
# Track frame offsets:
#	150
#	17465
#	33047
#	46944
#	61795
#	76820
#	95765
#	109785
#	128487
#	141378
#	156462
#	170257
#	185993
#
# Disc length: 2676 seconds
#
# Revision: 1
# Processed by: cddbd v1.5.2PL0 Copyright (c) Steve Scherf et al.
# Submitted via: CDex 1.60beta1-cs1
#
DISCID=a30a720d
DTITLE=Cézar e Paulinho - Companheiro é Companheiro
DYEAR=2007
DGENRE=Sertanejo
TTITLE0=Faltou Coragem
TTITLE1=O Dono da Felicidade
TTITLE2=Companheiro é Companheiro
TTITLE3=Certos e Errados
TTITLE4=Vida Boa
TTITLE5=Seu Amor Ainda é Tudo
TTITLE6=Aí Nóis Bebe
TTITLE7=Eu Juro
TTITLE8=Briga Mais Num Larga
TTITLE9=O Menino
TTITLE10=O Povo Canta Comigo
TTITLE11=Na Pegada
TTITLE12=Toca Cézar e Paulinho
EXTD=YEAR: 2007
EXTT0=
EXTT1=
EXTT2=
EXTT3=
EXTT4=
EXTT5=
EXTT6=
EXTT7=
EXTT8=
EXTT9=
EXTT10=
EXTT11=
EXTT12=
PLAYORDER=
